# xmcd
#
# Track frame offsets:
#	150
#	17482
#	36473
#	49943
#	69461
#	89661
#	106936
#	121417
#	141397
#	156491
#	175633
#	190124
#	207205
#	223929
#	243958
#
# Disc length: 3470 seconds
#
# Revision: 0
# Processed by: cddbd v1.5.2PL0 Copyright (c) Steve Scherf et al.
# Submitted via: EasyCDDAExtractor 12.0.0.1
#
DISCID=dd0d8c0f
DTITLE=Various Artist - Romance Sertanejo
DYEAR=2003
DGENRE=Sertanejo
TTITLE0=Gian and Giovani  - O Que É Que A Gente Faz Por Amor
TTITLE1=Leonardo  - Cristal Quebrado
TTITLE2=Bruno e Marrone  - Vivendo De Passado
TTITLE3=Gian and Giovani  - O Grande Amor Da Minha Vida (Convite De Casamento)
TTITLE4=Leonardo  - Deixaria Tudo
TTITLE5=Bruno e Marrone  - Paixão Demais
TTITLE6=Gian and Giovani  - Amor De Mais
TTITLE7=Leonardo  - Mentira Que Virou Paixão
TTITLE8=Bruno e Marrone  - Telefone Mudo
TTITLE9=Gian and Giovani  - Eu Busco Uma Estrela
TTITLE10=Leonardo  - Te Amo Demais
TTITLE11=Bruno e Marrone  - Ligação Urbana
TTITLE12=Gian and Giovani  - 1.000 Corações
TTITLE13=Leonardo - Temporal de Amor (Ao Vivo)
TTITLE14=Bruno E Marrone - Menina
EXTD=
EXTT0=
EXTT1=
EXTT2=
EXTT3=
EXTT4=
EXTT5=
EXTT6=
EXTT7=
EXTT8=
EXTT9=
EXTT10=
EXTT11=
EXTT12=
EXTT13=
EXTT14=
PLAYORDER=
